<svg width="577" height="433" version="1.1" xmlns="http://www.w3.org/2000/svg" desc="Created with imagetracer.js version 1.2.6" ><path fill="rgb(203,33,32)" stroke="rgb(203,33,32)" stroke-width="1" opacity="0.9764705882352941" d="M 186.5 57 L 207.5 57 L 208.5 58 L 215.5 58 L 225.5 60 L 231.5 64 L 245.5 68 L 253.5 75 L 256.5 75 L 268.5 86 L 272 87 L 274.5 91 Q 277.8 89.9 277 92.5 L 280.5 97 L 283 98.5 L 288.5 105 Q 290.8 105.8 290 103.5 L 308.5 84 L 328.5 70 L 351.5 60 L 357.5 60 L 360.5 58 Q 366.8 59.8 368.5 57 L 389.5 57 L 390.5 58 L 400.5 58 L 416.5 61 L 442 71 L 443.5 74 L 451 77 L 452.5 80 L 463 88 L 465 93 Q 467.7 91.9 467 94.5 L 478 112.5 L 481 126.5 L 483 128.5 L 484 142.5 L 485 143.5 L 485 162.5 L 484 163.5 L 483 179.5 L 481 183.5 L 481 191.5 Q 475.6 198.1 474 208.5 L 470 213.5 L 468 219.5 L 457 238.5 L 448 249.5 L 448 252 L 445 253.5 L 445 256.5 L 438.5 264 L 437 263.5 L 432 272 L 428 274.5 L 426.5 277 L 422 280.5 L 414.5 290 L 411.5 291 L 401 301.5 Q 401.8 303.8 399.5 303 Q 396.2 309.1 389 311.5 L 387.5 314 Q 376.8 319.3 369 327.5 Q 369.8 329.8 367.5 329 Q 360.1 332.1 355.5 338 L 344 344 Q 345.1 346.7 342.5 346 L 328.5 355 L 326 355 Q 327.1 357.7 324.5 357 L 306.5 368 L 305.5 367 L 302.5 370 L 297.5 371 Q 294.8 375.3 288.5 376 L 280 373 Q 281.1 370.3 278.5 371 L 256.5 360 L 255 360.5 L 256 358.5 L 235.5 347 L 227.5 340 L 225.5 340 L 221.5 336 L 209.5 329 L 204.5 324 L 202 324 Q 203.5 320.3 200.5 321 L 197 320 L 194.5 316 L 190 313.5 L 187.5 310 L 168 294.5 L 162.5 288 L 160 286.5 L 154.5 278 L 151.5 279 L 148.5 273 L 146 271.5 L 144.5 269 Q 142.3 269.8 143 267.5 L 142 265 L 139 263.5 L 136.5 259 L 134 257.5 L 129.5 250 Q 127.3 250.8 128 248.5 L 122 241.5 L 113 224 Q 110.3 225.1 111 222.5 L 109 215 L 106 213.5 L 100 199.5 L 97 186.5 L 95 184.5 L 94 169.5 L 92 160.5 L 93 159.5 L 93 144.5 L 92 142.5 L 96 129.5 Q 92.5 128 95 126.5 L 101 112.5 L 101 109.5 L 111.5 92 L 120 84.5 L 125.5 78 L 131.5 76 L 137.5 70 L 146.5 67 L 152.5 63 L 164.5 60 L 169.5 60 L 176.5 58 L 185.5 58 L 186.5 57 Z M 186 60 L 185 61 L 177 61 L 175 63 L 170 64 L 163 64 L 159 67 L 156 67 L 140 74 L 127 84 L 122 86 L 119 90 Q 120 92 117 91 L 116 95 L 107 106 L 100 124 L 100 127 L 98 129 L 99 131 L 97 135 Q 99 141 96 143 L 97 178 L 100 186 L 101 196 L 105 204 Q 103 208 107 207 L 112 221 L 115 224 L 118 231 Q 117 233 120 232 L 123 237 L 124 242 L 127 241 L 128 247 L 131 248 Q 135 251 135 257 L 139 258 L 142 263 Q 144 262 143 265 L 148 268 L 150 272 Q 153 271 152 274 L 156 276 L 158 283 L 163 285 L 164 288 Q 165 292 171 291 L 173 295 Q 172 297 175 296 L 175 299 Q 181 300 185 306 Q 187 305 186 308 L 189 309 L 190 312 Q 191 315 196 314 L 199 319 L 203 320 L 204 323 Q 214 326 221 334 Q 224 333 223 336 Q 231 339 236 345 L 244 348 L 251 354 L 255 355 L 258 358 L 270 364 Q 273 363 272 366 L 287 373 L 291 373 L 298 369 L 303 368 L 304 365 L 323 357 L 324 354 L 340 346 Q 342 347 341 344 L 361 332 L 377 319 Q 379 320 378 318 Q 379 315 383 315 L 387 310 L 390 308 L 392 308 L 394 306 Q 393 303 396 304 L 397 301 L 403 298 L 406 294 L 414 288 L 415 286 L 419 283 L 421 279 L 424 277 L 427 273 L 431 270 Q 434 267 435 262 L 439 258 Q 438 255 442 256 L 443 253 L 447 250 L 470 211 Q 469 207 472 208 L 472 206 L 472 204 L 478 191 Q 477 184 480 182 L 481 163 L 482 162 L 481 161 L 481 141 L 480 140 L 479 126 L 475 119 L 472 109 Q 466 103 463 94 L 462 94 L 457 87 L 454 86 L 451 83 L 450 84 L 447 78 L 444 78 L 431 70 L 417 65 Q 407 64 400 61 Q 393 63 392 60 L 368 60 L 366 60 L 360 63 Q 351 61 348 65 Q 343 64 344 67 L 338 68 L 326 76 L 319 78 L 317 81 L 311 85 L 309 88 L 302 92 L 298 98 Q 299 100 297 99 L 290 107 L 286 105 L 277 96 L 274 93 L 272 91 Q 263 88 260 80 Q 255 81 256 79 L 240 68 L 235 68 Q 231 63 223 63 L 221 63 L 211 60 L 186 60 Z " /><path fill="rgb(0,0,0)" stroke="rgb(0,0,0)" stroke-width="1" opacity="0" d="M 0 0 L 577 0 L 577 433 L 0 433 L 0 0 Z M 176 41 L 175 42 L 158 43 L 140 49 L 133 53 L 128 54 L 110 67 L 95 83 L 84 102 L 84 106 L 81 111 L 78 121 L 78 127 L 75 140 L 75 158 L 78 172 L 78 178 L 81 185 L 81 189 L 84 194 L 84 198 L 96 223 L 104 234 L 105 238 L 127 268 L 131 270 L 134 276 L 142 282 L 145 288 L 151 293 Q 150 295 153 294 L 154 297 L 162 303 Q 165 302 163 306 L 183 321 L 184 324 L 189 327 Q 191 326 190 329 Q 195 330 198 334 Q 200 333 199 336 L 213 345 Q 215 344 214 347 L 220 349 L 225 354 L 245 367 L 288 391 L 314 378 Q 316 379 315 376 L 318 376 L 334 366 Q 336 367 335 364 L 347 358 L 374 339 Q 376 340 375 338 L 389 327 Q 391 328 390 325 L 402 317 Q 401 314 404 315 L 405 312 L 411 309 L 416 303 Q 418 304 417 302 L 420 300 L 435 284 L 438 282 L 441 278 L 444 276 L 445 273 L 454 263 Q 453 260 456 261 L 474 236 L 475 232 L 487 212 Q 488 203 493 199 Q 493 192 496 190 L 496 186 L 499 180 L 499 174 L 502 162 L 502 136 L 499 124 L 499 119 L 493 101 L 483 84 Q 484 81 481 82 L 477 77 L 475 74 L 472 72 L 471 69 Q 468 70 469 67 L 447 53 Q 443 54 444 51 L 441 51 L 431 46 L 424 45 L 420 43 L 403 42 L 402 41 L 373 41 L 372 42 L 356 43 Q 353 46 348 45 L 343 48 L 340 48 L 325 55 Q 322 54 323 57 L 316 60 L 314 63 Q 306 64 302 71 Q 303 73 299 72 L 299 74 L 296 75 L 292 82 Q 289 81 290 84 L 287 84 Q 288 81 285 82 L 281 75 L 277 72 Q 274 73 275 71 L 266 63 Q 262 64 263 61 L 251 54 L 222 43 L 206 42 L 205 41 L 176 41 Z " /><path fill="rgb(185,30,32)" stroke="rgb(185,30,32)" stroke-width="1" opacity="0.9921568627450981" d="M 200.5 48 L 207.5 49 L 215.5 50 L 218.5 52 L 225.5 53 L 230.5 56 L 237 57 L 238.5 60 L 241.5 59 L 245 61.5 Q 244.3 63.8 246.5 63 L 248.5 63 Q 252.7 61.9 251 66 L 253.5 66 L 256 70 L 259.5 70 L 266 75.5 Q 265.2 78.1 268.5 77 L 274 81 L 274 83 L 276 83 Q 274.9 85.7 277.5 85 L 285 95 L 288.5 97 L 291 96 L 292.5 92 L 295 90.5 L 300 83 L 302.5 83 L 307 78.5 Q 306.3 76.3 308.5 77 L 315 72 L 316.5 69 L 331 62.5 L 330 60 L 336.5 61 L 341.5 56 L 346.5 56 L 350.5 53 L 361.5 51 L 364.5 49 L 403.5 49 L 429.5 56 L 437.5 61 L 440 60.5 L 440.5 59 L 441 62 L 444.5 62 L 456 69 L 456.5 71 L 458 70.5 L 460 73.5 L 466.5 81 L 470 82 Q 468.9 84.7 471.5 84 L 482 98.5 L 482 101.5 L 481 105 L 484 106.5 L 490 122.5 L 490 126.5 L 492 129.5 L 493 151.5 L 493 153.5 L 492 178.5 L 490.5 180 Q 487.5 179.1 489 183.5 L 487 192 Q 484.3 190.9 485 193.5 L 484 197.5 L 485 199.5 L 484 199.5 L 483.5 198 L 482 200.5 L 482 202.5 L 480 210.5 L 471.5 224 Q 468.5 223.1 470 227.5 L 468.5 230 L 467 229.5 L 462.5 239 L 460 240.5 L 454.5 251 L 452 252.5 L 450.5 256 L 448 257.5 Q 448.8 259.8 446.5 259 Q 441.5 262.4 441 269 Q 437.2 268.3 436 271.5 Q 436.5 275.5 433.5 276 Q 431.3 275.3 432 277.5 L 431 280 L 426 283.5 Q 426.8 285.8 424.5 285 L 423.5 288 L 420 288 Q 422.1 293.2 417.5 292 L 407.5 303 Q 404.2 307.6 398 308 L 400 312.5 L 396.5 313 L 394.5 313 Q 391.9 312.2 393 315.5 L 393 317.5 L 392.5 319 L 392 317 L 387 318 Q 388.5 321.8 385.5 321 L 379 325.5 L 377.5 328 Q 373.8 327.3 373 329.5 L 371.5 332 L 368 333.5 L 366.5 336 Q 364.3 335.3 365 337.5 L 363 337.5 Q 363.8 339.8 361.5 339 L 354.5 345 L 352 345 L 350.5 348 L 347.5 348 L 340.5 354 Q 339 351.5 337.5 355 L 332 357 Q 333.7 361.1 329.5 360 L 328 363 L 323.5 364 L 311.5 371 L 308 371 L 306.5 374 L 304.5 375 Q 303.3 372.8 302 375.5 L 303 378 L 297.5 379 L 294.5 378 Q 293.5 383 286.5 382 L 283 379.5 Q 283.8 377.3 281.5 378 L 274.5 376 L 265 370.5 Q 265.8 368.3 263.5 369 Q 262 371.5 260.5 368 L 257 366.5 L 255.5 364 L 253 364 Q 254.1 361.3 251.5 362 Q 250.5 359 245.5 360 Q 237 351 224.5 346 L 222.5 347 L 222.5 346 L 224 345.5 L 221.5 342 L 219.5 342 L 211.5 335 L 202 330.5 Q 204.8 328.8 200.5 327 L 198 327 Q 199.5 323.2 196.5 324 L 190 319.5 L 190.5 318 Q 186.8 318.8 186 316.5 L 184.5 314 L 182.5 314 L 178 309.5 L 176.5 307 L 174.5 308 L 176 305.5 L 174.5 304 L 171.5 306 L 173 303.5 Q 173.8 301.3 171.5 302 L 168 300 Q 169.1 297.3 166.5 298 Q 165 294.5 163.5 297 L 161 296.5 L 163 296 L 160.5 292 L 156 290.5 L 157 289.5 L 148 280.5 L 142.5 272 L 140 273.5 L 141 271.5 L 138.5 268 L 135.5 269 L 133 264.5 L 133 262.5 L 130 257 L 127 255.5 L 125.5 253 Q 122.9 253.8 124 250.5 L 114 238.5 L 112 234 L 110 233.5 L 110.5 232 Q 108.3 232.8 109 230.5 L 107 227.5 L 108 225 Q 103.9 226.7 105 222.5 Q 101.3 220.2 102 213.5 L 96 206.5 L 96 203.5 L 92 196.5 L 92 192.5 L 88 186.5 L 88 177.5 L 86 173.5 L 86 166.5 L 84 159.5 L 84 144.5 L 87 128.5 L 86 126 L 89 125.5 L 89 123.5 L 88 117.5 L 90 112 Q 92.7 113.1 92 110.5 L 96 105.5 L 98 96.5 L 104.5 88 L 108 85.5 Q 107.3 81.8 109.5 81 L 111 81.5 Q 110.5 76.5 114.5 76 L 119 73.5 L 121.5 70 L 128 66.5 L 127.5 65 L 132.5 62 L 134.5 62 Q 139.3 63.3 138 60 L 136 59.5 L 139.5 58 L 143.5 59 L 153.5 54 L 157.5 54 L 160.5 52 Q 167.2 52.7 170.5 50 Q 175.2 51.3 176.5 49 L 199.5 49 L 200.5 48 Z M 187 57 L 186 58 L 177 58 L 170 60 L 165 60 L 153 63 L 147 67 L 138 70 L 132 76 L 126 78 L 120 85 L 112 92 L 101 110 L 101 113 L 95 127 Q 93 128 96 130 L 92 143 L 93 145 L 93 160 L 92 161 L 94 170 L 95 185 L 97 187 L 100 200 L 106 214 L 109 215 L 111 223 Q 110 225 113 224 L 122 242 L 128 249 Q 127 251 130 250 L 134 258 L 137 259 L 139 264 L 142 265 L 143 268 Q 142 270 145 269 L 146 272 L 149 273 L 152 279 L 155 278 L 160 287 L 163 288 L 168 295 L 188 310 L 190 314 L 195 316 L 197 320 L 201 321 Q 204 320 202 324 L 205 324 L 210 329 L 222 336 L 226 340 L 228 340 L 236 347 L 255 357 L 256 360 L 259 360 L 279 371 Q 281 370 280 373 L 289 376 Q 295 375 298 371 L 303 370 L 306 367 L 307 368 L 325 357 Q 327 358 326 355 L 329 355 L 343 346 Q 345 347 344 344 L 356 338 Q 360 332 368 329 Q 370 330 369 328 Q 377 319 388 314 L 389 312 Q 396 309 400 303 Q 402 304 401 302 L 412 291 L 415 290 L 422 281 L 427 277 L 428 275 L 432 272 L 437 264 L 439 264 L 445 257 L 445 254 L 448 252 L 448 250 L 457 239 L 468 220 L 470 214 L 474 209 Q 476 198 481 192 L 481 184 L 483 180 L 484 164 L 485 163 L 485 144 L 484 143 L 483 129 L 481 127 L 478 113 L 467 95 Q 468 92 465 93 L 463 88 L 453 80 L 451 77 L 444 74 L 442 71 L 417 61 L 401 58 L 391 58 L 390 57 L 369 57 Q 367 60 361 58 L 358 60 L 352 60 L 329 70 L 309 84 L 290 104 Q 291 106 289 105 L 283 99 L 281 97 L 277 93 Q 278 90 275 91 L 272 87 L 269 86 L 257 75 L 254 75 L 246 68 L 232 64 L 226 60 L 216 58 L 209 58 L 208 57 L 187 57 Z " /><path fill="rgb(185,30,32)" stroke="rgb(185,30,32)" stroke-width="1" opacity="0.9921568627450981" d="M 166.5 302 L 169 302.5 L 166.5 303 L 166.5 302 Z " /><path fill="rgb(227,79,75)" stroke="rgb(227,79,75)" stroke-width="1" opacity="0.7803921568627451" d="M 175.5 41 L 205 41.5 L 175.5 42 L 175.5 41 Z " /><path fill="rgb(227,79,75)" stroke="rgb(227,79,75)" stroke-width="1" opacity="0.7803921568627451" d="M 372.5 41 L 402 41.5 L 372.5 42 L 372.5 41 Z " /><path fill="rgb(227,79,75)" stroke="rgb(227,79,75)" stroke-width="1" opacity="0.7803921568627451" d="M 164.5 42 L 174 42.5 L 155.5 45 L 135.5 52 L 115.5 64 L 103 75.5 Q 88 91.5 81 115.5 L 77 136.5 L 77 160.5 L 78 161.5 L 79 175.5 L 85 195.5 L 99 224.5 Q 120 260.5 148.5 289 L 151.5 291 L 153 294 Q 155.7 292.9 155 295.5 Q 184.3 324.2 218.5 348 L 264.5 377 L 289.5 389 L 331.5 366 L 375.5 336 Q 409.5 310.5 438 279.5 Q 456.7 259.2 472 235.5 L 490 201.5 L 495.5 186 L 496 189.5 L 483 219.5 L 475 231.5 L 474 235.5 L 456 261 Q 453.3 259.9 454 262.5 L 445 272.5 L 444 276 L 441 277.5 L 437.5 282 L 435 283.5 L 419.5 300 L 417 301.5 Q 417.8 303.8 415.5 303 L 410.5 309 L 405 312 L 403.5 315 Q 401.3 314.3 402 316.5 L 390 325 Q 391.1 327.7 388.5 327 L 375 337.5 Q 375.8 339.8 373.5 339 L 346.5 358 L 335 364 Q 336.1 366.7 333.5 366 L 317.5 376 L 315 376 Q 316.1 378.7 313.5 378 L 287.5 391 L 244.5 367 L 224.5 354 L 219.5 349 L 214 346.5 Q 214.8 344.3 212.5 345 L 199 336 Q 200.1 333.3 197.5 334 Q 195 329.6 190 329 Q 191.1 326.3 188.5 327 L 184 324 L 182.5 321 L 163 306 Q 164.5 302.3 161.5 303 L 154 296.5 L 152.5 294 Q 150.3 294.8 151 292.5 L 145 287.5 L 142 282 L 134 275.5 L 130.5 270 L 127 267.5 L 105 237.5 L 104 233.5 L 96 222.5 L 84 197.5 L 84 193.5 L 81 188.5 L 81 184.5 L 78 177.5 L 78 171.5 L 75 157.5 L 75 139.5 L 78 126.5 L 78 120.5 L 81 110.5 L 84 105.5 L 84 101.5 L 95 82.5 L 109.5 67 L 127.5 54 L 150.5 45 L 164.5 42 Z " /><path fill="rgb(227,79,75)" stroke="rgb(227,79,75)" stroke-width="1" opacity="0.7803921568627451" d="M 206.5 42 L 221.5 43 L 231.5 46 L 245.5 53 L 250.5 54 L 263 61 Q 261.8 64 265.5 63 L 275 70.5 Q 274.3 72.8 276.5 72 L 281 75 L 285 82 Q 288 81 287 84 L 290 84 Q 288.9 81.3 291.5 82 L 296 75 L 299 73.5 L 299 72 Q 302.7 73.5 302 70.5 Q 305.8 65.3 312.5 63 L 310.5 66 L 306.5 68 L 290 84.5 L 288.5 87 L 274.5 72 L 249.5 55 L 226.5 46 L 212.5 43 L 206.5 43 L 206.5 42 Z " /><path fill="rgb(227,79,75)" stroke="rgb(227,79,75)" stroke-width="1" opacity="0.7803921568627451" d="M 362.5 42 L 371 42.5 Q 336.4 46.4 314.5 63 L 314 61.5 L 320.5 57 L 323 57 Q 321.9 54.3 324.5 55 L 347.5 45 L 362.5 42 Z " /><path fill="rgb(227,79,75)" stroke="rgb(227,79,75)" stroke-width="1" opacity="0.7803921568627451" d="M 403.5 42 L 419.5 43 L 423.5 45 L 430.5 46 L 440.5 51 L 444 51 Q 442.8 54 446.5 53 L 469 67 Q 467.9 69.7 470.5 69 L 472 72 L 475 73.5 L 477 76.5 L 481 82 Q 483.7 80.9 483 83.5 L 493 100.5 L 499 118.5 L 499 123.5 L 502 135.5 L 502 161.5 L 499 173.5 L 499 179.5 L 496.5 185 L 496 182.5 L 500 165.5 L 501 143.5 L 500 142.5 L 500 131.5 L 498 125.5 L 498 120.5 L 493 104.5 Q 485.1 84.4 470.5 71 L 467.5 69 Q 456 57.5 439.5 51 L 421.5 45 L 403.5 43 L 403.5 42 Z " /><path fill="rgb(225,27,20)" stroke="rgb(225,27,20)" stroke-width="1" opacity="1" d="M 185.5 60 L 210.5 60 L 220.5 63 L 222.5 63 Q 230.7 63.3 234.5 68 L 239.5 68 L 256 78.5 Q 255.1 81.5 259.5 80 Q 263.4 87.5 272 90.5 L 273.5 93 L 277 95.5 L 285.5 105 L 289.5 107 L 296.5 99 Q 298.8 99.8 298 97.5 L 302 92 L 309 87.5 L 310.5 85 L 317 80.5 L 318.5 78 L 325.5 76 L 337.5 68 L 344 67 Q 342.7 63.7 347.5 65 Q 350.7 61.2 359.5 63 L 365.5 60 L 367.5 60 L 391.5 60 Q 393.3 62.7 399.5 61 Q 406.5 64.5 416.5 65 L 430.5 70 L 443.5 78 L 447 78 L 449.5 84 L 450.5 83 L 453.5 86 L 457 87 L 461.5 94 L 463 93.5 Q 466 102.5 472 108.5 L 475 118.5 L 479 125.5 L 480 139.5 L 481 140.5 L 481 160.5 L 482 161.5 L 481 162.5 L 480 181.5 Q 476.8 183.8 478 190.5 L 472 203.5 L 472 205.5 L 472 208 Q 469 206.8 470 210.5 L 447 250 L 443 252.5 L 441.5 256 Q 438.2 254.9 439 257.5 L 435 261.5 Q 434.3 267.3 430.5 270 L 427 272.5 L 423.5 277 L 421 278.5 L 418.5 283 L 415 285.5 L 413.5 288 L 406 293.5 L 402.5 298 L 397 301 L 395.5 304 Q 393.3 303.3 394 305.5 L 391.5 308 L 389.5 308 L 387 309.5 L 382.5 315 Q 378.5 314.5 378 317.5 Q 378.8 319.8 376.5 319 L 360.5 332 L 341 344 Q 342.1 346.7 339.5 346 L 324 354 L 322.5 357 L 304 365 L 302.5 368 L 297.5 369 L 290.5 373 L 286.5 373 L 272 365.5 Q 272.8 362.9 269.5 364 L 257.5 358 L 254.5 355 L 250.5 354 L 243.5 348 L 235.5 345 Q 230.9 338.6 223 335.5 Q 223.8 332.9 220.5 334 Q 213.9 326.3 204 323 L 202.5 320 L 199 319 L 195.5 314 Q 190.8 314.8 190 311.5 L 188.5 309 L 186 307.5 Q 186.8 305.3 184.5 306 Q 181.4 299.9 175 299 L 175 296 Q 172.3 297.1 173 294.5 L 170.5 291 Q 164.8 291.8 164 287.5 L 162.5 285 L 158 283 L 155.5 276 L 152 273.5 Q 152.8 270.9 149.5 272 L 148 268 L 143 264.5 Q 143.8 262.3 141.5 263 L 139 258 L 135 257 Q 134.7 250.9 130.5 248 L 128 246.5 L 126.5 241 L 124 242 L 123 236.5 L 119.5 232 Q 117.3 232.8 118 230.5 L 115 223.5 L 112 220.5 L 106.5 207 Q 103.5 207.9 105 203.5 L 101 195.5 L 100 185.5 L 97 177.5 L 96 142.5 Q 98.7 140.8 97 134.5 L 99 130.5 L 98 128.5 L 100 126.5 L 100 123.5 L 107 105.5 L 116 94.5 L 117 91 Q 119.7 92.1 119 89.5 L 121.5 86 L 126.5 84 L 139.5 74 L 155.5 67 L 158.5 67 L 162.5 64 L 169.5 64 L 174.5 63 L 176.5 61 L 184.5 61 L 185.5 60 Z M 192 65 L 192 68 L 175 68 L 168 70 L 163 70 L 152 76 L 150 76 L 150 78 L 144 78 L 143 80 L 144 81 L 144 90 L 142 90 L 142 80 L 139 81 L 136 81 Q 137 84 134 83 L 133 87 L 128 90 L 128 94 L 138 94 L 138 96 L 128 96 L 128 106 L 126 106 L 126 96 L 119 97 L 120 100 L 113 104 L 112 108 L 112 110 L 122 110 L 122 112 L 114 112 L 112 110 Q 108 113 108 120 L 104 126 Q 105 132 102 136 L 102 143 L 101 144 L 101 167 L 102 168 L 102 181 L 103 182 Q 101 188 106 186 Q 105 181 108 180 Q 106 175 111 176 L 112 178 L 110 179 L 110 186 L 108 187 L 108 192 L 106 192 Q 106 199 110 203 Q 109 205 112 204 L 112 207 L 115 208 L 114 212 L 116 219 Q 117 221 122 220 Q 123 214 120 211 L 122 207 L 124 208 Q 123 214 126 216 L 126 224 L 128 226 L 125 226 L 125 224 L 119 224 L 128 239 L 132 240 Q 131 245 135 247 Q 134 250 137 249 L 139 254 Q 138 256 141 255 L 142 259 L 151 266 Q 150 270 153 269 L 154 273 L 158 275 Q 160 276 159 280 L 162 278 L 166 280 L 168 280 L 166 283 L 167 285 L 170 287 Q 169 290 172 289 L 174 293 L 183 297 Q 187 298 186 303 L 192 306 L 193 309 L 199 311 L 200 308 L 200 312 L 204 313 L 203 313 L 203 314 Q 205 313 204 316 L 206 316 L 206 318 L 208 318 L 208 320 L 218 324 L 219 329 L 234 338 Q 237 337 236 340 L 239 340 L 241 340 Q 245 341 244 338 Q 247 337 247 340 L 256 340 L 256 344 Q 251 345 250 342 L 244 342 Q 243 345 248 344 L 247 346 L 250 348 L 260 352 L 264 356 L 266 356 L 267 359 L 271 361 L 276 360 L 280 365 L 280 367 L 283 368 L 287 367 L 289 367 Q 288 370 291 369 L 293 369 Q 295 368 294 365 Q 295 361 299 362 L 301 362 Q 302 360 307 361 L 312 357 Q 314 358 313 355 L 326 349 Q 329 350 328 347 L 333 345 Q 337 346 335 342 Q 337 337 339 340 L 346 337 Q 348 338 347 335 L 351 335 L 351 332 L 353 332 L 351 327 L 353 324 Q 357 322 356 327 Q 352 328 356 330 L 360 329 L 360 325 Q 357 325 358 320 Q 363 318 362 323 L 362 324 L 367 323 L 368 320 L 372 319 Q 371 315 374 316 L 373 313 Q 379 313 381 310 Q 384 311 383 308 L 388 306 L 393 298 L 403 294 L 409 284 Q 412 282 410 281 L 412 280 L 414 280 L 416 281 L 420 276 Q 419 273 422 274 Q 424 273 423 270 L 430 263 L 431 264 L 431 263 L 437 258 L 440 251 Q 439 248 442 249 L 441 248 L 443 247 L 442 244 L 446 243 Q 448 244 447 242 L 447 240 L 449 240 L 451 235 Q 450 232 453 233 L 457 226 L 456 224 L 458 223 L 460 219 Q 459 214 463 216 Q 462 212 465 211 Q 467 212 466 210 L 466 208 L 466 205 L 469 202 L 472 193 L 474 191 Q 475 186 473 185 L 476 169 Q 478 160 474 159 L 474 146 L 476 144 L 473 131 L 473 126 L 468 114 L 466 115 L 466 122 L 464 122 L 464 113 L 467 112 L 466 108 Q 465 103 460 104 L 458 98 L 450 90 L 448 88 Q 447 85 446 87 L 443 86 Q 439 85 440 81 L 435 78 L 431 78 L 429 76 L 425 76 L 421 74 Q 419 70 418 73 L 417 72 L 415 69 L 412 70 Q 410 68 406 69 L 401 68 L 385 68 L 384 65 L 369 65 L 368 68 L 360 69 L 362 70 L 346 70 L 345 71 L 342 71 L 342 76 L 338 78 L 338 80 L 336 77 Q 328 76 326 80 Q 327 83 323 81 L 323 83 Q 318 83 316 87 L 318 95 L 315 96 L 313 93 L 309 92 L 308 94 L 304 96 L 302 98 L 302 104 L 297 103 L 294 107 L 292 109 L 293 112 L 290 113 L 287 112 L 285 112 L 285 111 L 282 104 L 277 103 Q 273 102 274 97 L 263 91 Q 264 88 261 89 L 261 87 L 260 87 L 257 87 Q 258 83 255 84 L 255 81 L 252 81 L 247 77 L 242 78 L 239 76 L 225 76 L 226 74 L 234 74 L 234 71 L 232 72 L 229 72 L 231 71 L 225 68 L 224 70 Q 219 71 217 69 L 219 68 L 217 66 L 216 68 Q 211 70 212 66 L 208 65 L 192 65 Z M 112 208 L 111 212 L 112 212 L 112 208 Z " /><path fill="rgb(225,27,20)" stroke="rgb(225,27,20)" stroke-width="1" opacity="1" d="M 161 72 Q 165.3 71 164.5 74 L 175.5 74 L 176 76 L 161.5 76 L 161 72 Z " /><path fill="rgb(225,27,20)" stroke="rgb(225,27,20)" stroke-width="1" opacity="1" d="M 348 72 L 352 73.5 Q 354.1 79.3 349.5 78 L 346 76 L 348 72 Z " /><path fill="rgb(225,27,20)" stroke="rgb(225,27,20)" stroke-width="1" opacity="1" d="M 401.5 72 Q 405.8 71.3 406.5 74 L 416 74 L 416 78 L 407.5 78 Q 405.8 74.5 400 76 L 401.5 72 Z " /><path fill="rgb(225,27,20)" stroke="rgb(225,27,20)" stroke-width="1" opacity="1" d="M 208 76 L 212 76 L 212 78 Q 217.2 76.3 216 80 L 208 80 L 208 76 Z " /><path fill="rgb(225,27,20)" stroke="rgb(225,27,20)" stroke-width="1" opacity="1" d="M 360 76 L 368 76 L 368 80 L 365.5 81 L 364.5 80 L 358 80 L 360 76 Z " /><path fill="rgb(225,27,20)" stroke="rgb(225,27,20)" stroke-width="1" opacity="1" d="M 432 82 Q 435.7 80.8 434 86 Q 430.3 87.2 432 82 Z " /><path fill="rgb(225,27,20)" stroke="rgb(225,27,20)" stroke-width="1" opacity="1" d="M 438 90 Q 441 89 440 92 L 444 92 L 446 96 L 441.5 97 L 438.5 96 Q 433.9 97.2 436 92 Q 439 93 438 90 Z " /><path fill="rgb(225,27,20)" stroke="rgb(225,27,20)" stroke-width="1" opacity="1" d="M 257.5 92 L 262 94 Q 263.3 97.3 258.5 96 Q 257.3 98.3 256 95.5 L 257.5 92 Z " /><path fill="rgb(225,27,20)" stroke="rgb(225,27,20)" stroke-width="1" opacity="1" d="M 449.5 92 L 450 96 Q 447 97.3 448 93.5 L 449.5 92 Z " /><path fill="rgb(225,27,20)" stroke="rgb(225,27,20)" stroke-width="1" opacity="1" d="M 448 98 L 452 100 L 452 106 L 448 106 L 448 98 Z " /><path fill="rgb(225,27,20)" stroke="rgb(225,27,20)" stroke-width="1" opacity="1" d="M 272.5 102 L 273.5 104 Q 270.7 104.7 272.5 102 Z " /><path fill="rgb(225,27,20)" stroke="rgb(225,27,20)" stroke-width="1" opacity="1" d="M 275 108 Q 278.8 107 280 109.5 L 278.5 113 L 275 111.5 L 275 108 Z " /><path fill="rgb(225,27,20)" stroke="rgb(225,27,20)" stroke-width="1" opacity="1" d="M 299.5 108 L 301 112 L 297.5 113 L 296 110.5 L 299.5 108 Z " /><path fill="rgb(225,27,20)" stroke="rgb(225,27,20)" stroke-width="1" opacity="1" d="M 469.5 128 L 472 129 Q 473 133.3 470 132.5 L 470 143.5 L 468 144 L 468 129.5 L 469.5 128 Z " /><path fill="rgb(225,27,20)" stroke="rgb(225,27,20)" stroke-width="1" opacity="1" d="M 107.5 144 L 110 144.5 L 110 159.5 L 112 160 L 112 166 Q 108.3 164.8 110 170 L 106 170 L 106 145.5 L 107.5 144 Z " /><path fill="rgb(225,27,20)" stroke="rgb(225,27,20)" stroke-width="1" opacity="1" d="M 467.5 159 L 470 160 L 470 179.5 L 468 180 L 468 170.5 L 464 163.5 L 464 160 L 467.5 159 Z " /><path fill="rgb(225,27,20)" stroke="rgb(225,27,20)" stroke-width="1" opacity="1" d="M 464 192 Q 467.7 190.8 466 196 Q 462.3 197.2 464 192 Z " /><path fill="rgb(225,27,20)" stroke="rgb(225,27,20)" stroke-width="1" opacity="1" d="M 110 193 Q 113.3 191.9 112 196 Q 108.7 197.1 110 193 Z " /><path fill="rgb(225,27,20)" stroke="rgb(225,27,20)" stroke-width="1" opacity="1" d="M 448 214 L 452 214 L 452 220 L 448 222 L 448 214 Z " /><path fill="rgb(225,27,20)" stroke="rgb(225,27,20)" stroke-width="1" opacity="1" d="M 448 224 Q 451.7 222.8 450 228 Q 446.3 229.2 448 224 Z " /><path fill="rgb(225,27,20)" stroke="rgb(225,27,20)" stroke-width="1" opacity="1" d="M 142 240 L 144 240.5 L 144 250 L 142 249.5 L 142 240 Z " /><path fill="rgb(225,27,20)" stroke="rgb(225,27,20)" stroke-width="1" opacity="1" d="M 440 240 Q 443 239 442 242 Q 439 243 440 240 Z " /><path fill="rgb(225,27,20)" stroke="rgb(225,27,20)" stroke-width="1" opacity="1" d="M 432 250 L 434 250 L 434 255 L 432 255 L 432 250 Z " /><path fill="rgb(225,27,20)" stroke="rgb(225,27,20)" stroke-width="1" opacity="1" d="M 418 256 L 425.5 256 L 426 258 L 422 258 L 422 260 L 418 262 L 418 266 L 416 266 L 416 258.5 Q 418.7 259.1 418 256 Z " /><path fill="rgb(225,27,20)" stroke="rgb(225,27,20)" stroke-width="1" opacity="1" d="M 158 262 L 160 262.5 L 160 273.5 L 159 273.5 L 158 271.5 L 158 262 Z " /><path fill="rgb(225,27,20)" stroke="rgb(225,27,20)" stroke-width="1" opacity="1" d="M 408 272 Q 413.2 270.3 412 274 Q 406.8 275.7 408 272 Z " /><path fill="rgb(225,27,20)" stroke="rgb(225,27,20)" stroke-width="1" opacity="1" d="M 400 280 Q 403.7 278.8 402 284 Q 398.3 285.2 400 280 Z " /><path fill="rgb(225,27,20)" stroke="rgb(225,27,20)" stroke-width="1" opacity="1" d="M 400.5 287 L 403 288.5 L 401.5 291 L 399 289.5 L 400.5 287 Z " /><path fill="rgb(225,27,20)" stroke="rgb(225,27,20)" stroke-width="1" opacity="1" d="M 174.5 288 L 185.5 288 L 186 290 L 177.5 290 L 176.5 289 Q 174.7 291.5 174.5 288 Z " /><path fill="rgb(225,27,20)" stroke="rgb(225,27,20)" stroke-width="1" opacity="1" d="M 374 304 L 382.5 304 L 383 306 L 380 306 Q 381 309 378 308 L 378 306 Q 372.8 307.7 374 304 Z " /><path fill="rgb(225,27,20)" stroke="rgb(225,27,20)" stroke-width="1" opacity="1" d="M 225.5 328 L 228 328.5 L 225.5 329 L 225.5 328 Z " /><path fill="rgb(225,27,20)" stroke="rgb(225,27,20)" stroke-width="1" opacity="1" d="M 321.5 339 L 328 340 Q 329.3 343.3 324.5 342 L 320.5 344 L 319 341.5 L 321.5 339 Z " /><path fill="rgb(225,27,20)" stroke="rgb(225,27,20)" stroke-width="1" opacity="1" d="M 269.5 351 L 272 352 Q 273.7 356.1 269.5 355 L 267 354 Q 265.9 351.3 268.5 352 L 269.5 351 Z " /><path fill="rgb(225,27,20)" stroke="rgb(225,27,20)" stroke-width="1" opacity="1" d="M 276 352 Q 281.2 350.3 280 354 Q 274.8 355.7 276 352 Z " /><path fill="rgb(225,27,20)" stroke="rgb(225,27,20)" stroke-width="1" opacity="1" d="M 292 352 L 298 352 L 298 356 L 294 356 L 292 352 Z " /><path fill="rgb(225,27,20)" stroke="rgb(225,27,20)" stroke-width="1" opacity="1" d="M 305 352 Q 309.1 350.7 308 354 Q 303.9 355.3 305 352 Z " /><path fill="rgb(225,27,20)" stroke="rgb(225,27,20)" stroke-width="1" opacity="1" d="M 286 360 Q 289.7 358.8 288 364 Q 284.3 365.2 286 360 Z " /><path fill="rgb(226,27,20)" stroke="rgb(226,27,20)" stroke-width="1" opacity="1" d="M 192 65 L 207.5 65 L 212 66 Q 210.8 69.7 216 68 L 216.5 66 L 219 67.5 L 217 68.5 Q 218.6 71.5 224 70 L 224.5 68 L 231 70.5 L 229 71.5 L 231.5 72 L 234 71 L 234 74 L 225.5 74 L 225 76 L 238.5 76 L 241.5 78 L 246.5 77 L 251.5 81 L 255 81 L 255 84 Q 258 82.8 257 86.5 L 259.5 87 L 261 87 L 261 89 Q 263.7 87.9 263 90.5 L 274 96.5 Q 273 102 276.5 103 L 282 104 L 286.5 112 L 289.5 113 L 293 111.5 L 292 108.5 L 294 106.5 L 296.5 103 L 302 104 L 302 97.5 L 303.5 96 L 308 94 L 308.5 92 L 313 93 L 314.5 96 L 318 94.5 L 316 86.5 Q 318.1 82.9 323 83 L 323 81 Q 326.8 82.5 326 79.5 Q 328.3 75.8 335.5 77 L 337.5 80 L 338 78 L 342 76 L 342 71 L 344.5 71 L 345.5 70 L 362 69.5 L 360 68.5 L 368 68 L 368.5 65 L 384 65 L 384.5 68 L 400.5 68 L 405.5 69 Q 410.2 67.8 411.5 70 L 414.5 69 L 417 71.5 L 417.5 73 Q 419 70.5 420.5 74 L 424.5 76 L 428.5 76 L 430.5 78 L 434.5 78 L 440 81 Q 439.3 84.8 442.5 86 L 445.5 87 Q 446.8 84.7 448 87.5 L 449.5 90 L 458 97.5 L 460 104 Q 464.7 103.3 466 107.5 L 467 111.5 L 464 113 L 464 121.5 L 466 122 L 466 114.5 L 468 114 L 473 125.5 L 473 130.5 L 476 143.5 L 474 145.5 L 474 158.5 Q 478 160.5 476 168.5 L 473 184.5 Q 475.3 185.8 474 190.5 L 472 192.5 L 469 201.5 L 466 204.5 L 466 207.5 L 466 209.5 Q 466.8 211.8 464.5 211 Q 462 212.2 463 216 Q 458.9 214.3 460 218.5 L 458 223 L 456 223.5 L 457 225.5 L 453 233 Q 450.3 231.9 451 234.5 L 447 243 L 442 244 L 443 246.5 L 441 247.5 L 441.5 249 Q 439.3 248.3 440 250.5 L 437 258 L 431 262.5 L 430.5 264 L 429.5 263 L 423 269.5 Q 423.8 273.3 421.5 274 Q 419.3 273.3 420 275.5 L 415.5 281 L 413.5 280 L 411.5 280 L 410 280.5 Q 412.5 282 409 283.5 L 403 294 L 393 297.5 L 388 306 L 383 308 Q 384.3 311 380.5 310 Q 378.8 313.3 373 312.5 L 374 316 Q 371 314.8 372 318.5 L 368 320 L 366.5 323 L 361.5 324 L 362 322.5 Q 363.2 317.9 358 320 Q 356.7 325.3 360 324.5 L 360 329 L 355.5 330 Q 352.3 328.3 356 326.5 Q 357.3 322.3 352.5 324 L 351 326.5 L 353 331.5 L 351 332 L 351 335 L 347 335 Q 348.1 337.7 345.5 337 L 338.5 340 Q 336.7 337.3 335 341.5 Q 336.7 346.3 332.5 345 L 328 347 Q 329.3 350 325.5 349 L 313 355 Q 314.1 357.7 311.5 357 L 306.5 361 Q 301.8 359.7 300.5 362 L 298.5 362 Q 294.5 361.5 294 364.5 Q 294.8 368.3 292.5 369 L 290.5 369 Q 287.9 369.7 289 367 L 286.5 367 L 282.5 368 L 280 367 L 280 364.5 L 275.5 360 L 270.5 361 L 267 358.5 L 265.5 356 L 263.5 356 L 259.5 352 L 249.5 348 L 247 345.5 L 247.5 344 Q 242.7 345.3 244 342 L 249.5 342 Q 251 345.3 256 344 L 256 340 L 246.5 340 Q 247.1 337.3 244 338 Q 245.3 341.3 240.5 340 L 238.5 340 L 236 340 Q 237.3 337 233.5 338 L 219 328.5 L 218 324 L 208 319.5 L 208 318 L 206 318 L 206 316 L 204 316 Q 205.1 313.3 202.5 314 L 202.5 313 L 204 312.5 L 200.5 312 L 199 312.5 L 200 308.5 L 199 308.5 L 198.5 311 L 193 309 L 191.5 306 L 186 303 Q 186.8 298.3 182.5 297 L 174 292.5 L 171.5 289 Q 168.9 289.8 170 286.5 L 167 285 L 166 282.5 Q 168.3 281.3 165.5 280 L 161.5 278 L 159 279.5 Q 159.8 275.8 157.5 275 L 154 272.5 L 153 269 Q 149.7 270.3 151 265.5 L 142 258.5 L 141 255 Q 138.3 256.1 139 253.5 L 136.5 249 Q 133.9 249.8 135 246.5 Q 131.4 244.6 132 240 L 128 239 L 119 224 L 124.5 224 L 125 226 L 127.5 226 L 126 223.5 L 126 215.5 Q 122.5 213.8 124 208 L 121.5 207 L 120 210.5 Q 123 213.8 122 220 Q 117.4 221.3 116 218.5 L 114 211.5 L 115 208 L 112 206.5 L 112 204 Q 109.3 205.1 110 202.5 Q 105.7 199.1 106 192 L 108 192 L 108 186.5 L 110 186 L 110 178.5 L 111.5 178 L 110.5 176 Q 106.3 174.7 108 179.5 Q 104.8 181 106 186 Q 101.1 187.8 103 181.5 L 102 180.5 L 102 167.5 L 101 166.5 L 101 143.5 L 102 142.5 L 102 135.5 Q 104.7 132.2 104 125.5 L 108 119.5 L 109 113.5 Q 113 110.3 113 104 L 120 99.5 L 119 97 L 126 96 L 126 105.5 L 128 106 L 128 96 L 137.5 96 L 138 94 L 128 94 L 128 89.5 L 133 86.5 L 134 83 Q 137 84 136 81 L 138.5 81 L 143.5 78 L 150 78 Q 148.9 75.3 151.5 76 L 162.5 70 L 167.5 70 L 174.5 68 L 192 68 L 192 65 Z M 161 72 L 162 76 L 176 76 L 176 74 L 165 74 Q 165 71 161 72 Z M 348 72 L 346 76 L 350 78 Q 354 79 352 74 L 348 72 Z M 402 72 L 400 76 Q 406 75 408 78 L 416 78 L 416 74 L 407 74 Q 406 71 402 72 Z M 208 76 L 208 80 L 216 80 Q 217 76 212 78 L 212 76 L 208 76 Z M 360 76 L 358 80 L 365 80 L 366 81 L 368 80 L 368 76 L 360 76 Z M 142 80 L 142 90 L 144 90 L 144 81 L 142 80 Z M 432 82 Q 430 87 434 86 Q 436 81 432 82 Z M 438 90 Q 439 93 436 92 Q 434 97 439 96 L 442 97 L 446 96 L 444 92 L 440 92 Q 441 89 438 90 Z M 258 92 L 256 96 Q 257 98 259 96 Q 263 97 262 94 L 258 92 Z M 450 92 L 448 94 Q 447 97 450 96 L 450 92 Z M 448 98 L 448 106 L 452 106 L 452 100 L 448 98 Z M 273 102 Q 271 105 274 104 L 273 102 Z M 275 108 L 275 112 L 279 113 L 280 110 Q 279 107 275 108 Z M 300 108 L 296 111 L 298 113 L 301 112 L 300 108 Z M 113 110 L 114 112 L 122 112 L 122 110 L 113 110 Z M 470 128 L 468 130 L 468 144 L 470 144 L 470 133 Q 473 133 472 129 L 470 128 Z M 108 144 L 106 146 L 106 170 L 110 170 Q 108 165 112 166 L 112 160 L 110 160 L 110 145 L 108 144 Z M 468 159 L 464 160 L 464 164 L 468 171 L 468 180 L 470 180 L 470 160 L 468 159 Z M 464 192 Q 462 197 466 196 Q 468 191 464 192 Z M 110 193 Q 109 197 112 196 Q 113 192 110 193 Z M 448 214 L 448 222 L 452 220 L 452 214 L 448 214 Z M 448 224 Q 446 229 450 228 Q 452 223 448 224 Z M 142 240 L 142 250 L 144 250 L 144 241 L 142 240 Z M 440 240 Q 439 243 442 242 Q 443 239 440 240 Z M 432 250 L 432 255 L 434 255 L 434 250 L 432 250 Z M 418 256 Q 419 259 416 259 L 416 266 L 418 266 L 418 262 L 422 260 L 422 258 L 426 258 L 426 256 L 418 256 Z M 158 262 L 158 272 L 159 274 L 160 274 L 160 263 L 158 262 Z M 408 272 Q 407 276 412 274 Q 413 270 408 272 Z M 400 280 Q 398 285 402 284 Q 404 279 400 280 Z M 401 287 L 399 290 L 402 291 L 403 289 L 401 287 Z M 175 288 Q 175 291 177 289 L 178 290 L 186 290 L 186 288 L 175 288 Z M 374 304 Q 373 308 378 306 L 378 308 Q 381 309 380 306 L 383 306 L 383 304 L 374 304 Z M 226 328 L 226 329 L 228 329 L 226 328 Z M 322 339 L 319 342 L 321 344 L 325 342 Q 329 343 328 340 L 322 339 Z M 270 351 L 269 352 Q 266 351 267 354 L 270 355 Q 274 356 272 352 L 270 351 Z M 276 352 Q 275 356 280 354 Q 281 350 276 352 Z M 292 352 L 294 356 L 298 356 L 298 352 L 292 352 Z M 305 352 Q 304 355 308 354 Q 309 351 305 352 Z M 286 360 Q 284 365 288 364 Q 290 359 286 360 Z " /><path fill="rgb(226,27,20)" stroke="rgb(226,27,20)" stroke-width="1" opacity="1" d="M 111.5 208 L 112 211.5 L 111 211.5 L 111.5 208 Z " /><path fill="rgb(158,33,38)" stroke="rgb(158,33,38)" stroke-width="1" opacity="0.9803921568627451" d="M 174.5 42 L 205.5 42 L 226.5 46 L 240.5 51 Q 269.3 63.2 288 85.5 L 288.5 87 L 306.5 68 Q 325 53.5 350.5 46 L 371.5 42 L 402.5 42 L 403.5 43 L 421.5 45 L 439.5 51 Q 456.5 58.2 469 69 Q 467.9 71.7 470.5 71 L 485 88.5 L 496 112.5 L 500 131.5 L 501 153.5 L 500 154.5 L 500 165.5 L 496 185.5 Q 488.8 207.3 478 225.5 Q 450.1 272.1 410.5 307 Q 381.7 333.2 348.5 355 L 307.5 380 L 292.5 388 L 287.5 389 Q 212.2 351.3 155 295.5 L 153 292.5 L 150 291 Q 151.1 288.3 148.5 289 Q 116.3 257.2 94 215.5 L 85 195.5 L 79 175.5 L 78 161.5 L 77 160.5 L 77 136.5 L 78 135.5 L 79 122.5 L 85 103.5 Q 94.3 82.3 110.5 68 L 135.5 52 L 155.5 45 L 173.5 43 L 174.5 42 Z M 201 48 L 200 49 L 177 49 Q 175 51 171 50 Q 167 53 161 52 L 158 54 L 154 54 L 144 59 L 140 58 L 136 60 L 138 60 Q 139 63 135 62 L 133 62 L 128 65 L 128 67 L 122 70 L 119 74 L 115 76 Q 111 77 111 82 L 110 81 Q 107 82 108 86 L 105 88 L 98 97 L 96 106 L 92 111 Q 93 113 90 112 L 88 118 L 89 124 L 89 126 L 86 126 L 87 129 L 84 145 L 84 160 L 86 167 L 86 174 L 88 178 L 88 187 L 92 193 L 92 197 L 96 204 L 96 207 L 102 214 Q 101 220 105 223 Q 104 227 108 225 L 107 228 L 109 231 Q 108 233 111 232 L 110 234 L 112 234 L 114 239 L 124 251 Q 123 254 126 253 L 127 256 L 130 257 L 133 263 L 133 265 L 136 269 L 139 268 L 141 273 L 143 272 L 148 281 L 157 290 L 156 291 L 161 292 L 163 296 L 161 297 L 164 297 Q 165 295 167 298 Q 169 297 168 300 L 172 302 L 175 304 L 176 306 L 175 308 L 177 307 L 178 310 L 183 314 L 185 314 L 186 317 Q 187 319 191 318 L 190 320 L 197 324 Q 200 323 198 327 L 201 327 Q 205 329 202 331 L 212 335 L 220 342 L 222 342 L 223 345 L 238 353 L 246 360 Q 251 359 252 362 Q 254 361 253 364 L 256 364 L 257 367 L 261 368 L 264 369 Q 266 368 265 371 L 275 376 L 282 378 Q 284 377 283 380 L 287 382 Q 294 383 295 378 L 298 379 L 303 378 L 302 376 Q 303 373 305 375 L 307 374 L 308 371 L 312 371 L 324 364 L 328 363 L 330 360 Q 334 361 332 357 L 338 355 Q 339 351 341 354 L 348 348 L 351 348 L 352 345 L 355 345 L 362 339 Q 364 340 363 338 L 365 338 Q 364 335 367 336 L 368 334 L 372 332 L 373 330 Q 374 327 378 328 L 379 326 L 386 321 Q 389 322 387 318 L 393 316 Q 392 312 395 313 L 397 313 L 400 313 L 398 308 Q 404 308 408 303 L 418 292 Q 422 293 420 288 L 424 288 L 425 285 Q 427 286 426 284 L 431 280 L 432 278 Q 431 275 434 276 Q 436 276 436 272 Q 437 268 441 269 Q 441 262 447 259 Q 449 260 448 258 L 451 256 L 452 253 L 455 251 L 460 241 L 463 239 L 467 230 L 469 230 L 470 228 Q 468 223 472 224 L 480 211 L 482 203 L 482 201 L 485 194 Q 484 191 487 192 L 489 184 Q 487 179 491 180 L 492 179 L 493 154 L 493 152 L 492 130 L 490 127 L 490 123 L 484 107 L 481 105 L 482 102 L 482 99 L 472 84 Q 469 85 470 82 L 467 81 L 460 74 L 458 71 L 457 71 L 456 69 L 445 62 L 441 62 L 441 59 L 440 61 L 438 61 L 430 56 L 404 49 L 365 49 L 362 51 L 351 53 L 347 56 L 342 56 L 337 61 L 330 60 L 331 63 L 317 69 L 315 72 L 309 77 Q 306 76 307 79 L 303 83 L 300 83 L 295 91 L 293 92 L 291 96 L 289 97 L 285 95 L 278 85 Q 275 86 276 83 L 274 83 L 274 81 L 269 77 Q 265 78 266 76 L 260 70 L 256 70 L 254 66 L 251 66 Q 253 62 249 63 L 247 63 Q 244 64 245 62 L 242 59 L 239 60 L 237 57 L 231 56 L 226 53 L 219 52 L 216 50 L 208 49 L 201 48 Z M 167 302 L 167 303 L 169 303 L 167 302 Z " /></svg>